<svg width="18" height="12" viewBox="0 0 18 12" fill="none" xmlns="http://www.w3.org/2000/svg">
<path d="M8.7998 0.800049C14.273 0.800049 16.7998 5.85236 16.7998 5.85236C16.7998 5.85236 14.273 10.9047 8.7998 10.9047C3.32657 10.9047 0.799805 5.85236 0.799805 5.85236C0.799805 5.85236 3.32657 0.800049 8.7998 0.800049Z" stroke="#004B87" stroke-width="1.6" stroke-linejoin="round"/>
<path d="M11.1876 5.85216C11.1949 6.17997 11.1367 6.50593 11.0163 6.81092C10.8959 7.11591 10.7158 7.39378 10.4866 7.6282C10.2574 7.86263 9.98358 8.0489 9.68136 8.17607C9.37914 8.30323 9.05456 8.36874 8.72668 8.36874C8.39879 8.36874 8.07421 8.30323 7.77199 8.17607C7.46977 8.0489 7.196 7.86263 6.96675 7.6282C6.73751 7.39378 6.55741 7.11591 6.43703 6.81092C6.31665 6.50593 6.25842 6.17997 6.26575 5.85216C6.26575 5.19932 6.52509 4.57322 6.98672 4.11159C7.44835 3.64996 8.07445 3.39063 8.72729 3.39062C9.38013 3.39063 10.0062 3.64996 10.4679 4.11159C10.9295 4.57322 11.1888 5.19932 11.1888 5.85216H11.1876Z" stroke="#004B87" stroke-width="1.6" stroke-linejoin="round"/>
</svg>
