<svg width="20" height="20" viewBox="0 0 20 20" fill="none" xmlns="http://www.w3.org/2000/svg">
<path fill-rule="evenodd" clip-rule="evenodd" d="M8.89605 0.00419938C7.47736 0.00485677 6.07941 0.344771 4.81881 0.995583C3.55822 1.64639 2.47153 2.58923 1.64943 3.74543C0.827324 4.90163 0.293634 6.23767 0.0928865 7.64208C-0.107861 9.04648 0.0301546 10.4785 0.495419 11.8188C0.960683 13.159 1.7397 14.3685 2.76749 15.3464C3.79527 16.3243 5.04201 17.0423 6.4037 17.4404C7.76538 17.8385 9.20252 17.9051 10.5952 17.6348C11.9879 17.3645 13.2958 16.7651 14.4097 15.8866L18.2336 19.7076C18.4311 19.8982 18.6955 20.0036 18.97 20.0011C19.2444 19.9986 19.5069 19.8884 19.7009 19.6943C19.8949 19.5002 20.0048 19.2376 20.0071 18.9632C20.0094 18.6887 19.9038 18.4244 19.7131 18.227L15.8891 14.406C16.9228 13.0937 17.5661 11.5169 17.7454 9.85613C17.9247 8.19532 17.6329 6.51756 16.9032 5.01488C16.1735 3.5122 15.0356 2.24529 13.6195 1.35916C12.2034 0.47302 10.5665 0.00345547 8.89605 0.00419938ZM2.09597 8.90357C2.09529 7.09919 2.81142 5.36844 4.08683 4.09206C5.36224 2.81569 7.09245 2.09825 8.89684 2.09756C10.7012 2.09688 12.432 2.81302 13.7083 4.08843C14.9847 5.36383 15.7022 7.09404 15.7028 8.89843C15.7035 10.7028 14.9874 12.4336 13.712 13.7099C12.4366 14.9863 10.7064 15.7038 8.90198 15.7044C7.0976 15.7051 5.36685 14.989 4.09047 13.7136C2.8141 12.4382 2.09666 10.708 2.09597 8.90357Z" fill="#03273F"/>
</svg>
