<svg width="16" height="16" viewBox="0 0 16 16" fill="none" xmlns="http://www.w3.org/2000/svg">
<path d="M15.1623 0.837665C14.6253 0.301284 13.8973 0 13.1382 0C12.3792 0 11.6512 0.301284 11.1142 0.837665L1.55233 10.3989C1.22715 10.7238 0.99864 11.1326 0.892308 11.5797L0.0162849 15.2612C-0.00743444 15.3609 -0.00521059 15.465 0.0227445 15.5636C0.0506995 15.6623 0.103454 15.7521 0.175976 15.8245C0.248497 15.8969 0.338369 15.9496 0.437019 15.9774C0.535669 16.0053 0.639808 16.0074 0.739504 15.9836L4.4204 15.1068C4.86785 15.0006 5.27697 14.7721 5.60203 14.4468L15.1623 4.88713C15.6987 4.35014 16 3.62219 16 2.8632C16 2.10421 15.6987 1.37626 15.1623 0.839265M11.9622 1.68724C12.1166 1.53281 12.3 1.41031 12.5018 1.32673C12.7036 1.24315 12.9198 1.20014 13.1382 1.20014C13.3566 1.20014 13.5729 1.24315 13.7747 1.32673C13.9765 1.41031 14.1598 1.53281 14.3143 1.68724C14.4687 1.84167 14.5912 2.025 14.6748 2.22677C14.7584 2.42854 14.8014 2.6448 14.8014 2.8632C14.8014 3.08159 14.7584 3.29785 14.6748 3.49962C14.5912 3.7014 14.4687 3.88473 14.3143 4.03916L13.6006 4.75033L11.2486 2.39921L11.9622 1.68724ZM10.4006 3.24878L12.7526 5.59911L4.75241 13.5988C4.58441 13.7668 4.3732 13.8844 4.14199 13.9396L1.40912 14.5908L2.05954 11.8581C2.11474 11.6261 2.23314 11.4149 2.40115 11.2469L10.4006 3.24878Z" fill="#004B87"/>
</svg>
